<svg width="96" height="30" viewBox="0 0 96 30" fill="none" xmlns="http://www.w3.org/2000/svg">
<path d="M40.666 18.76C40.666 19.516 40.414 20.0807 39.91 20.454C39.6673 20.6313 39.4153 20.7713 39.154 20.874C38.902 20.9673 38.6547 21.014 38.412 21.014H35.36C35.1173 21.014 34.8653 20.9673 34.604 20.874C34.352 20.7713 34.1047 20.6313 33.862 20.454C33.6193 20.2673 33.4327 20.0387 33.302 19.768C33.1713 19.488 33.106 19.152 33.106 18.76V12.11C33.106 11.7367 33.1713 11.41 33.302 11.13C33.4327 10.8407 33.6193 10.6073 33.862 10.43H33.848C34.0907 10.2713 34.3427 10.1407 34.604 10.038C34.8653 9.93533 35.1173 9.884 35.36 9.884H38.412C38.6547 9.884 38.9067 9.93533 39.168 10.038C39.4293 10.1407 39.6813 10.2713 39.924 10.43H39.91C40.1527 10.6073 40.3393 10.8407 40.47 11.13C40.6007 11.41 40.666 11.7367 40.666 12.11V13.076C40.666 13.524 40.386 13.748 39.826 13.748C39.2753 13.748 39 13.524 39 13.076V12.236C39 12.0027 38.93 11.788 38.79 11.592C38.65 11.396 38.4073 11.298 38.062 11.298H35.71C35.3647 11.298 35.122 11.396 34.982 11.592C34.842 11.788 34.772 12.0027 34.772 12.236V18.648C34.772 18.8907 34.842 19.11 34.982 19.306C35.122 19.502 35.3647 19.6 35.71 19.6H38.062C38.4073 19.6 38.65 19.502 38.79 19.306C38.93 19.11 39 18.8907 39 18.648V17.836C39 17.3973 39.2753 17.178 39.826 17.178C40.386 17.178 40.666 17.3973 40.666 17.836V18.76ZM51.3723 9.814C51.671 9.814 51.9976 9.884 52.3523 10.024C52.679 10.1547 52.8423 10.402 52.8423 10.766V20.412C52.8423 20.86 52.567 21.084 52.0163 21.084C51.4656 21.084 51.1903 20.86 51.1903 20.412V13.216L50.7843 13.174L50.2243 14.994L48.5443 20.594C48.4416 20.9207 48.1896 21.0793 47.7883 21.07C47.611 21.0607 47.457 21.014 47.3263 20.93C47.1956 20.846 47.107 20.7247 47.0603 20.566L46.0523 17.304C45.847 16.66 45.6416 16.0067 45.4363 15.344C45.231 14.672 45.007 13.93 44.7643 13.118L44.3583 13.174V20.412C44.3583 20.86 44.083 21.084 43.5323 21.084C42.9816 21.084 42.7063 20.86 42.7063 20.412V10.766C42.7063 10.4113 42.8696 10.164 43.1963 10.024C43.5416 9.884 43.873 9.81867 44.1903 9.828C44.3303 9.828 44.475 9.84667 44.6243 9.884C44.7736 9.92133 44.9136 9.97733 45.0443 10.052C45.175 10.1173 45.2916 10.206 45.3943 10.318C45.497 10.4207 45.5763 10.542 45.6323 10.682L47.8303 18.172C47.989 17.6213 48.157 17.024 48.3343 16.38C48.5116 15.736 48.6936 15.0827 48.8803 14.42C49.067 13.7573 49.249 13.104 49.4263 12.46C49.613 11.8067 49.7856 11.2 49.9443 10.64C50.0003 10.5093 50.0796 10.3927 50.1823 10.29C50.285 10.1873 50.4016 10.1033 50.5323 10.038C50.663 9.96333 50.7983 9.90733 50.9383 9.87C51.0876 9.83267 51.2323 9.814 51.3723 9.814ZM55.8036 21.014C55.4582 21.014 55.2249 20.9253 55.1036 20.748C54.9822 20.5707 54.9216 20.3747 54.9216 20.16V10.486C54.9216 10.038 55.1922 9.814 55.7336 9.814C56.2936 9.814 56.5736 10.038 56.5736 10.486V19.6H61.2496C61.5856 19.6 61.7536 19.8287 61.7536 20.286C61.7722 20.7713 61.6042 21.014 61.2496 21.014H55.8036ZM62.9607 16.17C62.5313 16.17 62.3167 15.9367 62.3167 15.47C62.326 15.2273 62.3867 15.05 62.4987 14.938C62.6107 14.8167 62.7647 14.756 62.9607 14.756H65.7887C66.2087 14.756 66.4187 14.994 66.4187 15.47C66.4373 15.9367 66.2273 16.17 65.7887 16.17H62.9607ZM72.8604 19.6C73.2058 19.6 73.4484 19.502 73.5884 19.306C73.7284 19.11 73.7984 18.8907 73.7984 18.648V12.236C73.7984 12.0027 73.7284 11.788 73.5884 11.592C73.4484 11.396 73.2058 11.298 72.8604 11.298H69.5844L69.5704 20.426C69.5704 20.6313 69.4911 20.7947 69.3324 20.916C69.1738 21.0373 68.9778 21.098 68.7444 21.098C68.1938 21.098 67.9184 20.874 67.9184 20.426V10.724C67.9184 10.388 68.0024 10.164 68.1704 10.052C68.3478 9.94 68.5578 9.884 68.8004 9.884H73.2104C73.4531 9.884 73.7051 9.93533 73.9664 10.038C74.2278 10.1407 74.4798 10.2713 74.7224 10.43H74.7084C74.9511 10.6073 75.1378 10.8407 75.2684 11.13C75.3991 11.41 75.4644 11.7367 75.4644 12.11V18.76C75.4644 19.516 75.2124 20.0807 74.7084 20.454C74.4658 20.6313 74.2138 20.7713 73.9524 20.874C73.7004 20.9673 73.4531 21.014 73.2104 21.014H70.8584C70.6998 21.014 70.5738 20.9487 70.4804 20.818C70.3964 20.6873 70.3544 20.5147 70.3544 20.3C70.3544 19.8333 70.5551 19.6 70.9564 19.6H72.8604ZM78.5805 21.014C78.2351 21.014 78.0018 20.9253 77.8805 20.748C77.7591 20.5707 77.6985 20.3747 77.6985 20.16V10.724C77.6985 10.5093 77.7591 10.318 77.8805 10.15C78.0018 9.97267 78.2351 9.884 78.5805 9.884H83.4525C83.7978 9.884 83.9798 10.1173 83.9985 10.584C84.0171 11.06 83.8351 11.298 83.4525 11.298H79.3505V19.6H83.7045C84.0498 19.6 84.2271 19.8287 84.2365 20.286C84.2551 20.7713 84.0778 21.014 83.7045 21.014H78.5805ZM82.9345 15.218C82.9345 15.5447 82.8178 15.82 82.5845 16.044C82.3605 16.268 82.0851 16.38 81.7585 16.38C81.4411 16.38 81.1705 16.268 80.9465 16.044C80.7225 15.82 80.6105 15.5447 80.6105 15.218C80.6105 14.8913 80.7225 14.616 80.9465 14.392C81.1705 14.168 81.4411 14.056 81.7585 14.056C82.0851 14.056 82.3605 14.168 82.5845 14.392C82.8178 14.616 82.9345 14.8913 82.9345 15.218ZM89.1409 21.07C88.9542 21.07 88.7535 21.042 88.5389 20.986C88.3335 20.9207 88.1842 20.804 88.0909 20.636C87.8762 19.908 87.6522 19.1613 87.4189 18.396C87.1855 17.6307 86.9522 16.8793 86.7189 16.142C86.4575 15.274 86.1775 14.3733 85.8789 13.44C85.5802 12.4973 85.3002 11.5967 85.0389 10.738C84.9829 10.5327 85.0155 10.3553 85.1369 10.206C85.2582 10.0473 85.4309 9.93067 85.6549 9.856C85.7949 9.81867 85.9162 9.8 86.0189 9.8C86.3362 9.8 86.5415 9.95867 86.6349 10.276L87.6709 13.594C87.7642 13.93 87.8715 14.2987 87.9929 14.7C88.1235 15.1013 88.2542 15.512 88.3849 15.932C88.5155 16.352 88.6462 16.772 88.7769 17.192C88.9075 17.6027 89.0289 17.9853 89.1409 18.34C89.3182 17.752 89.5095 17.1173 89.7149 16.436C89.9295 15.7453 90.1442 15.0453 90.3589 14.336C90.5829 13.6267 90.8022 12.9267 91.0169 12.236C91.2315 11.536 91.4322 10.8827 91.6189 10.276C91.7215 9.95867 91.9222 9.8 92.2209 9.8C92.3329 9.8 92.4635 9.81867 92.6129 9.856C93.1262 9.996 93.3269 10.29 93.2149 10.738C92.7109 12.3713 92.2022 14.0187 91.6889 15.68C91.1755 17.3413 90.6669 18.9933 90.1629 20.636C90.0882 20.8227 89.9482 20.944 89.7429 21C89.5469 21.0467 89.3462 21.07 89.1409 21.07Z" fill="#0F172A"/>
<path d="M24.7187 28.2812L8.75 12.3125L6.03125 15.0312L11.75 20.75L10 22.5L2.5 15L6.96875 10.5312L1.71875 5.28125L3.5 3.5L26.5 26.5L24.7187 28.2812ZM23.0312 19.4687L21.25 17.6875L23.9687 14.9687L18.25 9.25L20 7.5L27.5 15L23.0312 19.4687Z" fill="#38BDF8"/>
</svg>
